<svg width="100%" height="100%" viewBox="0 0 626 444" fill="none" xmlns="http://www.w3.org/2000/svg">
<path d="M2.07102 117.818H26.9808V69.1491H74.902V48.6115H26.9808V20.5376H80.0795V0H2.07102V117.818Z" fill="white"/>
<path d="M123.333 119.544C150.141 119.544 166.824 101.192 166.824 73.9815C166.824 46.598 150.141 28.304 123.333 28.304C96.5246 28.304 79.8414 46.598 79.8414 73.9815C79.8414 101.192 96.5246 119.544 123.333 119.544ZM123.448 100.56C111.079 100.56 104.751 89.2266 104.751 73.809C104.751 58.3913 111.079 47.0007 123.448 47.0007C135.586 47.0007 141.915 58.3913 141.915 73.809C141.915 89.2266 135.586 100.56 123.448 100.56Z" fill="white"/>
<path d="M232.945 80.1946C233.003 92.0455 224.891 98.2585 216.089 98.2585C206.827 98.2585 200.844 91.7578 200.787 81.3452V29.4545H176.28V85.7173C176.337 106.37 188.418 118.969 206.194 118.969C219.484 118.969 229.033 112.123 233.003 101.768H233.923V117.818H257.452V29.4545H232.945V80.1946Z" fill="white"/>
<path d="M270.575 117.818H295.082V67.826C295.082 56.9531 303.021 49.4744 313.836 49.4744C317.231 49.4744 321.89 50.0497 324.192 50.7976V29.0518C322.005 28.5341 318.956 28.1889 316.483 28.1889C306.588 28.1889 298.476 33.9418 295.255 44.8722H294.334V29.4545H270.575V117.818Z" fill="white"/>
<path d="M381.813 29.4545H365.187V8.28409H340.68V29.4545H328.599V47.8636H340.68V93.8864C340.565 111.202 352.358 119.774 370.134 119.026C376.462 118.796 380.95 117.531 383.423 116.725L379.569 98.4886C378.361 98.7188 375.772 99.294 373.471 99.294C368.581 99.294 365.187 97.4531 365.187 90.6648V47.8636H381.813V29.4545Z" fill="white"/>
<path d="M417.702 66.733C417.76 55.3423 424.721 48.669 434.731 48.669C444.683 48.669 450.551 55.0547 450.493 65.9276V117.818H475.001V61.5554C475.058 40.8452 462.862 28.304 444.453 28.304C431.049 28.304 422.074 34.6321 418.047 45.0447H417.012V0H393.195V117.818H417.702V66.733Z" fill="white"/>
<path d="M106.025 203.248C102.746 176.037 82.1506 160.389 54.8821 160.389C23.7592 160.389 0 182.365 0 220.909C0 259.338 23.3565 281.429 54.8821 281.429C85.0845 281.429 103.321 261.352 106.025 239.663L80.8274 239.548C78.4687 252.147 68.5739 259.396 55.2848 259.396C37.3935 259.396 25.255 246.107 25.255 220.909C25.255 196.402 37.2209 182.423 55.4574 182.423C69.0916 182.423 78.929 190.304 80.8274 203.248H106.025Z" fill="white"/>
<path d="M141.454 162H116.947V279.818H141.454V162Z" fill="white"/>
<path d="M179.803 281.487C192.862 281.487 201.319 275.791 205.634 267.565H206.324V279.818H229.565V220.219C229.565 199.163 211.732 190.304 192.057 190.304C170.886 190.304 156.965 200.429 153.57 216.537L176.237 218.378C177.905 212.51 183.14 208.195 191.942 208.195C200.283 208.195 205.058 212.395 205.058 219.643V219.989C205.058 225.684 199.018 226.432 183.658 227.928C166.169 229.538 150.464 235.406 150.464 255.139C150.464 272.627 162.947 281.487 179.803 281.487ZM186.822 264.573C179.286 264.573 173.878 261.064 173.878 254.333C173.878 247.43 179.573 244.036 188.202 242.827C193.553 242.08 202.297 240.814 205.231 238.858V248.235C205.231 257.497 197.58 264.573 186.822 264.573Z" fill="white"/>
<path d="M315.62 216.652C313.434 200.371 300.317 190.304 277.996 190.304C255.388 190.304 240.488 200.774 240.545 217.803C240.488 231.034 248.829 239.606 266.088 243.058L281.39 246.107C289.099 247.66 292.608 250.479 292.724 254.908C292.608 260.143 286.913 263.883 278.341 263.883C269.597 263.883 263.787 260.143 262.291 252.952L238.187 254.218C240.488 271.131 254.87 281.544 278.284 281.544C301.18 281.544 317.576 269.866 317.633 252.435C317.576 239.663 309.234 232.012 292.091 228.503L276.098 225.281C267.871 223.498 264.822 220.679 264.88 216.422C264.822 211.129 270.805 207.678 278.399 207.678C286.913 207.678 291.976 212.337 293.184 218.033L315.62 216.652Z" fill="white"/>
<path d="M400.107 216.652C397.921 200.371 384.804 190.304 362.483 190.304C339.874 190.304 324.975 200.774 325.032 217.803C324.975 231.034 333.316 239.606 350.575 243.058L365.877 246.107C373.586 247.66 377.095 250.479 377.21 254.908C377.095 260.143 371.4 263.883 362.828 263.883C354.084 263.883 348.274 260.143 346.778 252.952L322.673 254.218C324.975 271.131 339.357 281.544 362.771 281.544C385.667 281.544 402.063 269.866 402.12 252.435C402.063 239.663 393.721 232.012 376.578 228.503L360.585 225.281C352.358 223.498 349.309 220.679 349.367 216.422C349.309 211.129 355.292 207.678 362.886 207.678C371.4 207.678 376.462 212.337 377.671 218.033L400.107 216.652Z" fill="white"/>
<path d="M2.07102 441.818H26.9808V393.149H77.5483V441.818H102.401V324H77.5483V372.612H26.9808V324H2.07102V441.818Z" fill="white"/>
<path d="M155.923 443.544C182.731 443.544 199.414 425.192 199.414 397.982C199.414 370.598 182.731 352.304 155.923 352.304C129.114 352.304 112.431 370.598 112.431 397.982C112.431 425.192 129.114 443.544 155.923 443.544ZM156.038 424.56C143.669 424.56 137.341 413.227 137.341 397.809C137.341 382.391 143.669 371.001 156.038 371.001C168.176 371.001 174.504 382.391 174.504 397.809C174.504 413.227 168.176 424.56 156.038 424.56Z" fill="white"/>
<path d="M233.377 390.733C233.434 379.342 240.223 372.669 250.117 372.669C259.955 372.669 265.88 379.112 265.823 389.928V441.818H290.33V385.555C290.33 364.96 278.249 352.304 259.84 352.304C246.723 352.304 237.231 358.747 233.262 369.045H232.226V353.455H208.87V441.818H233.377V390.733Z" fill="white"/>
<path d="M343.09 443.544C369.898 443.544 386.581 425.192 386.581 397.982C386.581 370.598 369.898 352.304 343.09 352.304C316.281 352.304 299.598 370.598 299.598 397.982C299.598 425.192 316.281 443.544 343.09 443.544ZM343.205 424.56C330.836 424.56 324.508 413.227 324.508 397.809C324.508 382.391 330.836 371.001 343.205 371.001C355.343 371.001 361.671 382.391 361.671 397.809C361.671 413.227 355.343 424.56 343.205 424.56Z" fill="white"/>
<path d="M452.702 404.195C452.759 416.045 444.648 422.259 435.846 422.259C426.584 422.259 420.601 415.758 420.544 405.345V353.455H396.036V409.717C396.094 430.37 408.175 442.969 425.951 442.969C439.24 442.969 448.79 436.123 452.759 425.768H453.68V441.818H477.209V353.455H452.702V404.195Z" fill="white"/>
<path d="M490.332 441.818H514.839V391.826C514.839 380.953 522.778 373.474 533.593 373.474C536.987 373.474 541.647 374.05 543.948 374.798V353.052C541.762 352.534 538.713 352.189 536.24 352.189C526.345 352.189 518.233 357.942 515.012 368.872H514.091V353.455H490.332V441.818Z" fill="white"/>
<path d="M623.66 378.652C621.474 362.371 608.358 352.304 586.037 352.304C563.428 352.304 548.528 362.774 548.586 379.803C548.528 393.034 556.87 401.606 574.128 405.058L589.431 408.107C597.14 409.66 600.649 412.479 600.764 416.908C600.649 422.143 594.954 425.883 586.382 425.883C577.638 425.883 571.827 422.143 570.331 414.952L546.227 416.218C548.528 433.131 562.91 443.544 586.324 443.544C609.221 443.544 625.616 431.866 625.674 414.435C625.616 401.663 617.275 394.012 600.131 390.503L584.138 387.281C575.912 385.498 572.863 382.679 572.92 378.422C572.863 373.129 578.846 369.678 586.439 369.678C594.954 369.678 600.016 374.337 601.224 380.033L623.66 378.652Z" fill="white"/>
<path d="M468.831 124.818H566.831V338.818L517.831 283.141L468.831 338.818V124.818Z" fill="white"/>
<path fill-rule="evenodd" clip-rule="evenodd" d="M516.675 25.8851C530.105 24.422 534.347 47.3933 546.904 52.3802C559.326 57.3136 579.475 42.3757 586.635 53.6698C595.191 67.1662 572.96 84.8877 577.268 100.279C580.532 111.939 599.781 111.714 605.819 122.208C611.696 132.423 613.668 145.854 609.919 157.028C606.146 168.273 592.506 172.927 585.573 182.548C578.481 192.389 578.282 207.1 568.586 214.385C559.007 221.582 545.203 224.816 533.683 221.535C521.151 217.965 516.836 200.051 504.417 196.105C493.977 192.789 482.558 206.129 472.387 202.062C462.88 198.259 463.635 183.009 455.647 176.6C444.728 167.839 421.356 172.166 418.137 158.535C414.82 144.49 439.477 137.615 443.144 123.656C446.057 112.569 432.972 101.341 436.063 90.3024C439.018 79.7486 449.572 72.7494 458.972 67.1262C467.941 61.7606 480.388 64.7777 488.892 58.6999C500.65 50.2963 502.311 27.4498 516.675 25.8851Z" fill="#F2EEE0"/>
<circle cx="518.071" cy="128.058" r="49.2397" fill="#E6B740"/>
</svg>
