<?xml version="1.0" standalone="no"?>
<!DOCTYPE svg PUBLIC "-//W3C//DTD SVG 20010904//EN"
 "http://www.w3.org/TR/2001/REC-SVG-20010904/DTD/svg10.dtd">
<svg version="1.0" xmlns="http://www.w3.org/2000/svg"
 width="500.000000pt" height="500.000000pt" viewBox="0 0 500.000000 500.000000"
 preserveAspectRatio="xMidYMid meet">
<metadata>
Created by potrace 1.14, written by Peter Selinger 2001-2017
</metadata>
<g transform="translate(0.000000,500.000000) scale(0.100000,-0.100000)"
fill="#000000" stroke="none">
<path d="M1190 3493 c-61 -23 -100 -78 -105 -151 -5 -83 34 -150 102 -173 23
-7 227 -11 651 -11 347 0 607 -4 595 -9 -13 -4 -127 -114 -255 -242 -725 -729
-1115 -1126 -1127 -1148 -8 -13 -16 -49 -17 -79 -5 -97 52 -163 149 -176 28
-4 59 -2 79 6 22 8 238 218 635 619 l603 606 602 -607 c348 -350 615 -612 631
-618 145 -52 281 91 222 234 -8 20 -64 85 -123 145 -790 802 -1238 1251 -1248
1251 -7 0 -15 4 -18 9 -4 5 243 9 603 9 640 0 658 1 699 45 62 66 63 190 2
248 -53 52 22 49 -1372 48 -711 0 -1300 -3 -1308 -6z"/>
</g>
</svg>
