<?xml version="1.0" standalone="no"?>
<!DOCTYPE svg PUBLIC "-//W3C//DTD SVG 20010904//EN"
 "http://www.w3.org/TR/2001/REC-SVG-20010904/DTD/svg10.dtd">
<svg version="1.0" xmlns="http://www.w3.org/2000/svg"
 width="500.000000pt" height="500.000000pt" viewBox="0 0 500.000000 500.000000"
 preserveAspectRatio="xMidYMid meet">
<metadata>
Created by potrace 1.14, written by Peter Selinger 2001-2017
</metadata>
<g transform="translate(0.000000,500.000000) scale(0.100000,-0.100000)"
fill="#000000" stroke="none">
<path d="M394 4081 c-105 -48 -157 -131 -157 -253 -1 -66 3 -85 29 -135 33
-65 88 -109 156 -127 31 -8 335 -11 1021 -11 966 1 977 0 940 -18 -20 -11
-204 -187 -407 -392 -1701 -1709 -1773 -1783 -1797 -1831 -34 -69 -34 -189 -1
-253 65 -122 210 -179 345 -135 57 18 -24 -61 1453 1427 l524 527 539 -542
c1450 -1461 1382 -1394 1434 -1411 105 -35 227 -9 297 63 55 57 74 107 75 195
0 120 -14 142 -242 373 -811 820 -1792 1810 -1861 1876 -46 45 -101 90 -122
101 l-40 20 993 1 c978 1 993 1 1038 22 26 11 60 33 76 49 107 105 102 312
-10 409 -81 69 76 64 -2191 64 -1970 -1 -2053 -1 -2092 -19z"/>
</g>
</svg>
